<svg width="7" height="12" viewBox="0 0 7 12" fill="none" xmlns="http://www.w3.org/2000/svg">
<path d="M1.53318 0.469402L6.53318 5.4694C6.6031 5.53908 6.65857 5.62187 6.69643 5.71304C6.73428 5.8042 6.75377 5.90194 6.75377 6.00065C6.75377 6.09936 6.73428 6.1971 6.69643 6.28827C6.65857 6.37943 6.6031 6.46222 6.53318 6.5319L1.53318 11.5319C1.39228 11.6728 1.20118 11.752 1.00193 11.752C0.802669 11.752 0.611572 11.6728 0.470676 11.5319C0.32978 11.391 0.250625 11.1999 0.250625 11.0007C0.250625 10.8014 0.32978 10.6103 0.470676 10.4694L4.94005 6.00003L0.470051 1.53065C0.329155 1.38976 0.25 1.19866 0.25 0.999403C0.25 0.800145 0.329155 0.609049 0.470051 0.468153C0.610948 0.327257 0.802044 0.2481 1.0013 0.2481C1.20056 0.2481 1.39166 0.327257 1.53255 0.468153L1.53318 0.469402Z" fill="black" fill-opacity="0.6"/>
</svg>
