<svg width="40" height="38" viewBox="0 0 40 38" fill="none" xmlns="http://www.w3.org/2000/svg">
<rect x="0.214844" y="0.444336" width="38.9331" height="36.8749" rx="8" fill="#F7F7FF"/>
<path d="M19.6764 10.7348C19.0755 10.7348 18.5883 11.2219 18.5883 11.8229V25.9405C18.5883 26.5415 19.0755 27.0287 19.6764 27.0287C20.2774 27.0287 20.7646 26.5415 20.7646 25.9405V11.8229C20.7646 11.2219 20.2774 10.7348 19.6764 10.7348Z" fill="#6F6C90" stroke="#6F6C90" stroke-width="0.3" stroke-linecap="round"/>
<path d="M12.1229 17.8432C11.5494 17.8432 11.0844 18.3081 11.0844 18.8817C11.0844 19.4553 11.5493 19.9203 12.1229 19.9203H27.2325C27.806 19.9203 28.271 19.4553 28.271 18.8817C28.271 18.3081 27.806 17.8432 27.2325 17.8432H12.1229Z" fill="#6F6C90" stroke="#6F6C90" stroke-width="0.3" stroke-linecap="round"/>
</svg>
